<?xml version="1.0" encoding="UTF-8" standalone="no"?>
<!DOCTYPE svg PUBLIC "-//W3C//DTD SVG 1.1//EN" "http://www.w3.org/Graphics/SVG/1.1/DTD/svg11.dtd">
<svg width="100%" height="100%" viewBox="0 0 128 128" version="1.1" xmlns="http://www.w3.org/2000/svg" xmlns:xlink="http://www.w3.org/1999/xlink" xml:space="preserve" xmlns:serif="http://www.serif.com/" style="fill-rule:evenodd;clip-rule:evenodd;stroke-linecap:round;stroke-linejoin:round;stroke-miterlimit:1.5;">
    <path d="M67,32L39,35L18,48L6,63C1.525,75.851 5.452,90.96 24,110L43,121L54,125L74,125C104.059,115.804 117.698,100.861 123,83C125.144,72.508 124.034,64.036 119,58C107.859,41.119 90.27,32.791 67,32Z" style="fill:url(#_Linear1);stroke:black;stroke-width:1px;"/>
    <path d="M64.2,30.5C49.4,30.5 17.1,34.2 5,63.2C3.5,67.3 3.7,74 4.4,78.7C6.9,92 20.6,117.3 54.5,125.2C50.8,124.2 47,121.1 45.1,119.9C39.1,118.5 33.2,116.4 27.4,112.3C17.2,104.9 8,93 5.3,80.3C4.6,76.7 4.1,70.9 4.9,67.5C8,58.2 19.9,43.4 34.9,38.5C41.8,36.2 49.4,33 63.9,33C74.7,33 83.3,34.5 91.6,37.3C100.2,39.3 117.6,49.4 123.5,65.9C122.2,58.4 114.3,49.4 106.3,43.7C99.1,38.5 87.6,31.1 64.2,30.5Z" style="fill:url(#_Radial2);fill-rule:nonzero;"/>
    <path d="M124,67.7C126.2,77.8 122,88 117.8,96C115.3,99.5 113.2,103.3 109.9,106.6C104.3,112.9 93,119.2 88.6,121C83.8,122.9 77.7,124.8 73.5,125.3C76.2,124.6 79.7,122.2 83.3,119.9C91,117.9 97.2,115.4 103.8,110.2C112.3,103.4 120.1,92.4 122.8,80.5C123.9,75.4 124.3,69.6 123.4,67.1L124,67.7Z" style="fill:rgb(50,63,69);fill-rule:nonzero;"/>
    <path d="M44.1,108.6C46.9,117.6 55.1,124.8 64.3,124.8C72.4,124.8 81.6,120.1 84.6,108.3C79.2,107.4 74,102.3 64.2,102.3C58.4,102.3 50.2,106.5 44.1,108.6Z" style="fill:url(#_Linear3);fill-rule:nonzero;"/>
    <path d="M38.3,36.6C44.3,34.9 51.4,33 63.6,33C71.1,33 79.9,33.9 89.5,36.8C87.7,41.1 86.3,45.6 85.1,50.6C84.1,54.1 79.6,63.2 88.7,65.6C93.4,65.6 95.6,60.9 95.8,58.8C96.5,51.9 96.9,45.5 98.1,40.4C104.8,42.9 112.6,49.9 112.4,56C112.2,57.9 111.1,59.5 108.4,60C104.3,60.7 95.7,64 90.4,67.5C82.8,72.4 73.6,83.5 71.6,99.9C69.1,99.2 67.1,99 63.9,99C61.4,99 59,99.2 57,99.9C54.6,91.3 46.5,75.5 29.4,65.6C26.1,63.9 21.7,61.6 19.1,60.1C16.8,58.7 15.9,57.1 16.4,54.6C17.6,48.9 24.6,43.4 30,40.2C30.9,43.6 31.9,48.4 32.4,56.4C32.6,61.1 36.2,65.5 39.6,65.6C44.3,65.5 46.3,61.4 45.2,56.4C43,49.7 41.1,43.2 38.3,36.6Z" style="fill:url(#_Linear4);fill-rule:nonzero;"/>
    <path d="M72,97.4C74.4,85.1 89.1,66.1 106.9,61.6C112.2,60.4 120.1,60.4 123.5,67.1C121.9,62.6 120.7,60.2 119.1,57.9L119.7,59C115.7,53.1 108.1,45.2 100.1,40.6L98.1,40.2L97.9,40.4C103.6,42.9 113.6,49.6 118.4,59C115.4,56.9 111.6,59.9 108.4,60C105.1,60.2 95.1,64.1 90.4,67.5C84.1,71.4 74.6,81.5 72,97.4Z" style="fill:url(#_Linear5);fill-rule:nonzero;"/>
    <path d="M8.2,57.6C5.6,61.9 4.9,65.1 4.6,68C7.4,61.6 13.4,60.2 20,61C28,62.1 33.5,65.6 37.4,68.4C43.1,72.5 52,80.5 56.9,94.9C55.2,86.7 49.4,76.2 41.4,69.6C36.9,66 27.4,61.9 20.6,60C17.7,59.4 13.7,58.1 10.9,59L18.2,50L28,41.7L30.1,40L29.9,39C23,41.9 13.2,49.1 8.2,57.6Z" style="fill:url(#_Linear6);fill-rule:nonzero;"/>
    <path d="M38,34.1C34.9,26.6 31.1,18.1 27.6,13.5C23.6,8.2 17.9,3.5 11.7,3.4C8.1,3.2 5.1,5.1 6.4,10.5C8.6,17.9 16.1,25.1 24.6,29.7C25.9,31.9 29.1,36.1 30,39.7L31.4,39C29.9,35.2 27.9,30.2 25.7,28.6C19.9,26.9 12,20.2 9.1,14C7.9,11.4 6.2,5.6 10,4.6C17.1,3.1 24.4,10.2 27.9,14.9C31.2,19.7 35.9,29.7 39.1,36.6L39.1,34.1L38,34.1Z" style="fill:url(#_Linear7);fill-rule:nonzero;"/>
    <path d="M25.5,28.6C28,30.6 34,43.7 34.4,57.2C34.5,60.2 36.9,64.5 40.1,65.5C42.9,65.9 46,63.4 45.4,58.4C45.1,55.2 42.1,46.5 38.6,37.7C35.4,30.7 32.2,23.2 28.4,16.9C25.1,11.6 16.9,3.6 10.4,5.4C7.6,6.1 7.4,9.6 9.9,14.6C12.5,19.4 17.9,25.9 25.5,28.6Z" style="fill:rgb(5,2,3);fill-rule:nonzero;"/>
    <path d="M25.9,28.7C28,30.7 33.6,40.1 34.1,56.7C32.1,54 33.6,44.1 24.6,29.9C22.6,29 19.9,28.4 14.9,23.9C10.4,19.9 4.7,11.9 6.4,6.4C7.4,3.4 10.1,2.5 14,3.6C19.4,4.6 26.5,10.5 30.1,17.1C27.2,14.1 20.5,4.9 11.6,5.2C9.1,5.2 6.9,7.1 8.4,11.6C10.1,17.1 17.4,25.6 25.9,28.7Z" style="fill:url(#_Linear8);fill-rule:nonzero;"/>
    <path d="M27,20.6C29.5,19.9 39.4,42.1 42,58C41.7,59.4 41.2,59.4 40.4,56.7C36,39.7 31.4,28.9 27,21.7L27,20.6Z" style="fill:url(#_Linear9);fill-rule:nonzero;"/>
    <path d="M89.9,34.4C92.5,27.4 96.4,19.2 99.6,14.4C103.4,8.6 109.1,3.4 115.6,3.4C118.9,3.4 122.1,4.7 121.4,9.6C120.1,17.1 111.1,26.5 102.5,29.9C101.4,32.5 99.1,36.6 98.4,39.2L96.9,39C98.1,34.9 100.6,30 102.1,28.6C106.6,27.5 113.2,22.7 117.1,16.2C119.6,12.2 122.5,5.2 116.6,4.9C110.9,4.6 104.6,9.2 100.1,15.6C96.9,21.5 92.7,29 90.1,36.6L89.9,34.4Z" style="fill:url(#_Linear10);fill-rule:nonzero;"/>
    <path d="M101.9,29C99.4,32.6 94.6,42 93.9,57.1C94.1,60.9 93.1,64.2 88.6,65.6C85.1,65.4 82.1,63.4 82.5,58.6C82.6,56.4 86,45.4 89.4,37.6C92.6,29.7 96.9,20.9 99.9,15.9C103.4,10.5 110.1,3.7 116.6,4.9C120.9,5.7 120.9,9.6 118.4,14.2C115.9,19.4 110.2,26.4 101.9,29Z" style="fill:url(#_Linear11);fill-rule:nonzero;"/>
    <path d="M101.7,20.4C100.4,19.2 93.2,31.5 89.1,46.7C87.9,51.2 86.1,57.9 87.1,59C87.6,59.7 89.1,53.1 90.9,46.2C93.5,35.5 98.9,25.1 101.7,21.2L101.7,20.4Z" style="fill:url(#_Linear12);fill-rule:nonzero;"/>
    <path d="M13.6,70.4C10.2,72.9 9.6,85.9 16.9,96C22.9,103.7 33,108.9 41.4,106.9C46.9,105.7 50.2,103.7 50.1,98.5C49.9,87.6 39.5,76.1 32.6,72.4C27.4,69.6 18.9,66.7 13.6,70.4Z" style="fill:url(#_Linear13);fill-rule:nonzero;"/>
    <path d="M14.1,70.7C9.7,72.9 10.2,88.6 19.6,97.4C27,104.6 34.2,106.1 41.6,104.4C46.4,103.4 49.6,101.7 49.5,98.1C49.6,90.1 42.6,79.7 36.4,75C30.5,70.6 20.5,67.4 14.1,70.7Z" style="fill:url(#_Linear14);fill-rule:nonzero;"/>
    <path d="M114.4,70.6C117,73.4 118.4,87.9 109.4,96.9C105.1,101.7 97.5,108.9 86.5,107.6C82.1,106.6 78,104.9 77.6,100.7C76.9,90.6 82,81.4 89.7,75.7C96.5,70.7 108.4,65.9 114.4,70.6Z" style="fill:url(#_Linear15);fill-rule:nonzero;"/>
    <path d="M114.4,71.5C117.4,76.1 116.9,88.2 107.4,97.6C101.6,103.4 95.2,106 88.1,104.6C84.9,104.1 80,102.5 79.5,99.6C78.6,93.4 81.7,84.7 89.1,77.4C94.1,72.5 110.4,64.2 114.4,71.5Z" style="fill:url(#_Linear16);fill-rule:nonzero;"/>
    <path d="M31,75.1C26.6,77.9 29,87.4 36.4,88.4C43.7,88.1 42.5,81.1 38.6,77.5C36.9,76.1 33.9,73.5 31,75.1Z" style="fill:url(#_Radial17);fill-rule:nonzero;"/>
    <path d="M97.9,75.1C101.4,77.4 100.4,86.6 92.2,88.4C86.9,88.4 85.6,82.9 89.6,78.2C91.5,76 95,73.9 97.9,75.1Z" style="fill:url(#_Radial18);fill-rule:nonzero;"/>
    <path d="M24.6,73.4C23.5,76.5 31,77 31.9,75.5C32.2,73.5 25.2,71.5 24.6,73.4Z" style="fill:url(#_Radial19);fill-rule:nonzero;"/>
    <path d="M96.2,75.4C96.5,77.4 103.5,76 103.2,73.5C102.2,71.7 96.4,73.5 96.2,75.4Z" style="fill:url(#_Radial20);fill-rule:nonzero;"/>
    <path d="M20.1,82.4C20.9,80.1 28.6,78.7 30.1,81.6C29.5,82.4 20.4,82.9 20.1,82.4Z" style="fill:url(#_Radial21);fill-rule:nonzero;"/>
    <path d="M97.9,80.4C98.6,78.6 106.9,78.9 107.6,82.4C106,82 98.4,81.5 97.9,80.4Z" style="fill:url(#_Radial22);fill-rule:nonzero;"/>
    <path d="M25.6,84.6C24.1,85.4 25.6,89.4 28.7,91.1C31.6,92.6 33.9,91.1 32.4,89.4C31.1,87.6 27.6,83.6 25.6,84.6Z" style="fill:url(#_Radial23);fill-rule:nonzero;"/>
    <path d="M96.2,90.6C96.4,91.9 102.1,90.9 103.2,86.6C103.6,84.6 99.7,84.2 96.2,90.6Z" style="fill:url(#_Radial24);fill-rule:nonzero;"/>
    <path d="M114.6,85.4C116.1,80.5 116.9,74.5 114.6,71.6L114.4,71.6L114,72C115.6,75.6 115.6,82.9 114.6,85.4Z" style="fill:url(#_Linear25);fill-rule:nonzero;"/>
    <path d="M12.5,83.7C11.9,79.7 11.7,71.9 14.5,70.9L14,72C12.9,75.1 12.2,80.4 12.5,83.7Z" style="fill:url(#_Linear26);fill-rule:nonzero;"/>
    <path d="M86,106.9C94.1,108.6 103.6,107.4 111,97.5C104.6,103.1 97.9,106.9 86,106.9Z" style="fill:url(#_Linear27);fill-rule:nonzero;"/>
    <path d="M18.2,98C23.6,104.1 32.4,109.1 43.2,106.6C33.6,107 25.1,104.1 18.2,98Z" style="fill:url(#_Linear28);fill-rule:nonzero;"/>
    <path d="M35.8,88.6L37.2,92.5L37.8,92.9L36.6,88.7L35.8,88.6Z" style="fill:url(#_Linear29);fill-rule:nonzero;"/>
    <path d="M92.9,88.7L91.6,92.9L92.6,92.5L93.2,89L92.9,88.7Z" style="fill:url(#_Linear30);fill-rule:nonzero;"/>
    <defs>
        <linearGradient id="_Linear1" x1="0" y1="0" x2="1" y2="0" gradientUnits="userSpaceOnUse" gradientTransform="matrix(67,7,-7,67,12,65)"><stop offset="0" style="stop-color:black;stop-opacity:1"/><stop offset="0.45" style="stop-color:rgb(131,131,131);stop-opacity:1"/><stop offset="1" style="stop-color:rgb(166,166,166);stop-opacity:1"/></linearGradient>
        <radialGradient id="_Radial2" cx="0" cy="0" r="1" gradientUnits="userSpaceOnUse" gradientTransform="matrix(59.87,0,0,59.87,64.47,66.02)"><stop offset="0" style="stop-color:rgb(152,150,150);stop-opacity:1"/><stop offset="1" style="stop-color:rgb(5,5,5);stop-opacity:1"/></radialGradient>
        <linearGradient id="_Linear3" x1="0" y1="0" x2="1" y2="0" gradientUnits="userSpaceOnUse" gradientTransform="matrix(0,-22.5,22.5,0,64.34,124.8)"><stop offset="0" style="stop-color:rgb(5,5,5);stop-opacity:1"/><stop offset="1" style="stop-color:rgb(48,47,48);stop-opacity:1"/></linearGradient>
        <linearGradient id="_Linear4" x1="0" y1="0" x2="1" y2="0" gradientUnits="userSpaceOnUse" gradientTransform="matrix(0,-65.14,65.14,0,64.16,97.53)"><stop offset="0" style="stop-color:rgb(16,16,16);stop-opacity:1"/><stop offset="0.53" style="stop-color:rgb(85,84,84);stop-opacity:1"/><stop offset="1" style="stop-color:rgb(7,7,7);stop-opacity:1"/></linearGradient>
        <linearGradient id="_Linear5" x1="0" y1="0" x2="1" y2="0" gradientUnits="userSpaceOnUse" gradientTransform="matrix(37,0,0,37,72,79)"><stop offset="0" style="stop-color:rgb(153,152,152);stop-opacity:1"/><stop offset="1" style="stop-color:rgb(57,60,61);stop-opacity:1"/></linearGradient>
        <linearGradient id="_Linear6" x1="0" y1="0" x2="1" y2="0" gradientUnits="userSpaceOnUse" gradientTransform="matrix(52.304,0,0,52.304,4.556,78.5)"><stop offset="0" style="stop-color:rgb(88,88,88);stop-opacity:1"/><stop offset="0.73" style="stop-color:rgb(168,166,167);stop-opacity:1"/><stop offset="1" style="stop-color:rgb(100,100,100);stop-opacity:1"/></linearGradient>
        <linearGradient id="_Linear7" x1="0" y1="0" x2="1" y2="0" gradientUnits="userSpaceOnUse" gradientTransform="matrix(32.904,0,0,32.904,6.156,28.9)"><stop offset="0" style="stop-color:rgb(132,176,133);stop-opacity:1"/><stop offset="0.43" style="stop-color:rgb(24,86,92);stop-opacity:1"/><stop offset="1" style="stop-color:rgb(174,211,140);stop-opacity:1"/></linearGradient>
        <linearGradient id="_Linear8" x1="0" y1="0" x2="1" y2="0" gradientUnits="userSpaceOnUse" gradientTransform="matrix(18.79,-6.6,6.6,18.79,7.48,20.08)"><stop offset="0" style="stop-color:rgb(5,10,9);stop-opacity:1"/><stop offset="1" style="stop-color:rgb(5,10,9);stop-opacity:0.5"/></linearGradient>
        <linearGradient id="_Linear9" x1="0" y1="0" x2="1" y2="0" gradientUnits="userSpaceOnUse" gradientTransform="matrix(14.98,0,0,14.98,26.98,39.1)"><stop offset="0" style="stop-color:rgb(35,31,32);stop-opacity:1"/><stop offset="0.43" style="stop-color:white;stop-opacity:1"/><stop offset="1" style="stop-color:rgb(35,31,32);stop-opacity:1"/></linearGradient>
        <linearGradient id="_Linear10" x1="0" y1="0" x2="1" y2="0" gradientUnits="userSpaceOnUse" gradientTransform="matrix(39.24,0,0,39.24,82.46,29.1)"><stop offset="0" style="stop-color:rgb(5,5,5);stop-opacity:1"/><stop offset="0.48" style="stop-color:rgb(24,86,92);stop-opacity:1"/><stop offset="1" style="stop-color:rgb(174,211,140);stop-opacity:1"/></linearGradient>
        <linearGradient id="_Linear11" x1="0" y1="0" x2="1" y2="0" gradientUnits="userSpaceOnUse" gradientTransform="matrix(34.78,-23.7,23.7,34.78,84.92,36.75)"><stop offset="0" style="stop-color:rgb(5,2,3);stop-opacity:1"/><stop offset="1" style="stop-color:rgb(5,10,9);stop-opacity:0.5"/></linearGradient>
        <linearGradient id="_Linear12" x1="0" y1="0" x2="1" y2="0" gradientUnits="userSpaceOnUse" gradientTransform="matrix(15.42,0,0,15.42,86.28,40.15)"><stop offset="0" style="stop-color:rgb(35,31,32);stop-opacity:1"/><stop offset="0.51" style="stop-color:white;stop-opacity:1"/><stop offset="1" style="stop-color:rgb(35,31,32);stop-opacity:1"/></linearGradient>
        <linearGradient id="_Linear13" x1="0" y1="0" x2="1" y2="0" gradientUnits="userSpaceOnUse" gradientTransform="matrix(38.5,0,0,38.5,11.56,85.1)"><stop offset="0" style="stop-color:rgb(4,46,6);stop-opacity:1"/><stop offset="1" style="stop-color:rgb(5,2,3);stop-opacity:1"/></linearGradient>
        <linearGradient id="_Linear14" x1="0" y1="0" x2="1" y2="0" gradientUnits="userSpaceOnUse" gradientTransform="matrix(0,-36.07,36.07,0,27.53,104.5)"><stop offset="0" style="stop-color:rgb(185,227,69);stop-opacity:1"/><stop offset="0.47" style="stop-color:rgb(50,150,21);stop-opacity:1"/><stop offset="1" style="stop-color:rgb(4,46,6);stop-opacity:1"/></linearGradient>
        <linearGradient id="_Linear15" x1="0" y1="0" x2="1" y2="0" gradientUnits="userSpaceOnUse" gradientTransform="matrix(36.2,-36.12,36.12,36.2,80.1,105.4)"><stop offset="0" style="stop-color:rgb(5,2,3);stop-opacity:1"/><stop offset="1" style="stop-color:rgb(4,34,5);stop-opacity:1"/></linearGradient>
        <linearGradient id="_Linear16" x1="0" y1="0" x2="1" y2="0" gradientUnits="userSpaceOnUse" gradientTransform="matrix(0.84,-36.18,36.18,0.84,96.76,104.8)"><stop offset="0" style="stop-color:rgb(185,227,69);stop-opacity:1"/><stop offset="0.47" style="stop-color:rgb(50,150,21);stop-opacity:1"/><stop offset="1" style="stop-color:rgb(4,46,6);stop-opacity:1"/></linearGradient>
        <radialGradient id="_Radial17" cx="0" cy="0" r="1" gradientUnits="userSpaceOnUse" gradientTransform="matrix(6.439,0,0,6.439,35.56,79.8)"><stop offset="0" style="stop-color:white;stop-opacity:1"/><stop offset="1" style="stop-color:rgb(106,153,108);stop-opacity:1"/></radialGradient>
        <radialGradient id="_Radial18" cx="0" cy="0" r="1" gradientUnits="userSpaceOnUse" gradientTransform="matrix(6.857,0,0,6.857,93.36,80)"><stop offset="0" style="stop-color:white;stop-opacity:1"/><stop offset="1" style="stop-color:rgb(106,153,108);stop-opacity:1"/></radialGradient>
        <radialGradient id="_Radial19" cx="0" cy="0" r="1" gradientUnits="userSpaceOnUse" gradientTransform="matrix(3.944,0,0,3.944,28.29,74.26)"><stop offset="0" style="stop-color:rgb(120,185,116);stop-opacity:1"/><stop offset="1" style="stop-color:rgb(4,46,6);stop-opacity:0"/></radialGradient>
        <radialGradient id="_Radial20" cx="0" cy="0" r="1" gradientUnits="userSpaceOnUse" gradientTransform="matrix(3.944,0,0,3.944,99.91,74.56)"><stop offset="0" style="stop-color:rgb(120,185,116);stop-opacity:1"/><stop offset="1" style="stop-color:rgb(4,46,6);stop-opacity:0"/></radialGradient>
        <radialGradient id="_Radial21" cx="0" cy="0" r="1" gradientUnits="userSpaceOnUse" gradientTransform="matrix(5.2,0,0,5.2,25.06,81.6)"><stop offset="0" style="stop-color:rgb(37,96,21);stop-opacity:1"/><stop offset="1" style="stop-color:rgb(4,46,6);stop-opacity:0"/></radialGradient>
        <radialGradient id="_Radial22" cx="0" cy="0" r="1" gradientUnits="userSpaceOnUse" gradientTransform="matrix(5.167,0,0,5.167,102.4,81.1)"><stop offset="0" style="stop-color:rgb(120,185,116);stop-opacity:1"/><stop offset="1" style="stop-color:rgb(4,46,6);stop-opacity:0"/></radialGradient>
        <radialGradient id="_Radial23" cx="0" cy="0" r="1" gradientUnits="userSpaceOnUse" gradientTransform="matrix(4.067,0,0,4.067,28.76,88.5)"><stop offset="0" style="stop-color:rgb(63,127,36);stop-opacity:1"/><stop offset="1" style="stop-color:rgb(4,46,6);stop-opacity:0"/></radialGradient>
        <radialGradient id="_Radial24" cx="0" cy="0" r="1" gradientUnits="userSpaceOnUse" gradientTransform="matrix(3.928,0,0,3.928,99.36,88.2)"><stop offset="0" style="stop-color:rgb(63,127,36);stop-opacity:1"/><stop offset="1" style="stop-color:rgb(4,46,6);stop-opacity:0"/></radialGradient>
        <linearGradient id="_Linear25" x1="0" y1="0" x2="1" y2="0" gradientUnits="userSpaceOnUse" gradientTransform="matrix(1,-10.78,10.78,1,114.9,82.7)"><stop offset="0" style="stop-color:rgb(4,46,6);stop-opacity:0"/><stop offset="0.72" style="stop-color:rgb(101,179,56);stop-opacity:1"/><stop offset="1" style="stop-color:rgb(101,179,56);stop-opacity:1"/></linearGradient>
        <linearGradient id="_Linear26" x1="0" y1="0" x2="1" y2="0" gradientUnits="userSpaceOnUse" gradientTransform="matrix(1.35,-13.03,13.03,1.35,12.37,84.5)"><stop offset="0" style="stop-color:rgb(4,46,6);stop-opacity:0"/><stop offset="0.78" style="stop-color:rgb(101,179,56);stop-opacity:1"/><stop offset="1" style="stop-color:rgb(101,179,56);stop-opacity:1"/></linearGradient>
        <linearGradient id="_Linear27" x1="0" y1="0" x2="1" y2="0" gradientUnits="userSpaceOnUse" gradientTransform="matrix(24.99,-9.31,9.31,24.99,86.61,107.2)"><stop offset="0" style="stop-color:rgb(5,5,5);stop-opacity:1"/><stop offset="0.49" style="stop-color:rgb(109,107,108);stop-opacity:1"/><stop offset="1" style="stop-color:rgb(5,5,5);stop-opacity:1"/></linearGradient>
        <linearGradient id="_Linear28" x1="0" y1="0" x2="1" y2="0" gradientUnits="userSpaceOnUse" gradientTransform="matrix(25,0,0,25,18.16,103.3)"><stop offset="0" style="stop-color:rgb(5,5,5);stop-opacity:1"/><stop offset="0.54" style="stop-color:rgb(109,107,108);stop-opacity:1"/><stop offset="1" style="stop-color:rgb(5,5,5);stop-opacity:1"/></linearGradient>
        <linearGradient id="_Linear29" x1="0" y1="0" x2="1" y2="0" gradientUnits="userSpaceOnUse" gradientTransform="matrix(2,0,0,2,35.76,90.55)"><stop offset="0" style="stop-color:rgb(21,70,15);stop-opacity:1"/><stop offset="0.43" style="stop-color:rgb(141,198,123);stop-opacity:1"/><stop offset="1" style="stop-color:rgb(21,70,15);stop-opacity:1"/></linearGradient>
        <linearGradient id="_Linear30" x1="0" y1="0" x2="1" y2="0" gradientUnits="userSpaceOnUse" gradientTransform="matrix(1.6,0,0,1.6,91.56,90.7)"><stop offset="0" style="stop-color:rgb(21,70,15);stop-opacity:1"/><stop offset="0.43" style="stop-color:rgb(141,198,123);stop-opacity:1"/><stop offset="1" style="stop-color:rgb(21,70,15);stop-opacity:1"/></linearGradient>
    </defs>
</svg>
